<?xml version="1.0" encoding="UTF-8"?>
<svg width="200px" height="200px" viewBox="0 0 200 200" version="1.1" xmlns="http://www.w3.org/2000/svg">
    <title>Carretos.sa Logo</title>
    <g stroke="none" stroke-width="1" fill="none" fill-rule="evenodd">
        <circle fill="#0F766E" cx="100" cy="100" r="100"></circle>
        <g transform="translate(35.000000, 50.000000)" fill="#FFFFFF">
            <path d="M130,40 C130,62.09139 112.09139,80 90,80 L40,80 C17.90861,80 0,62.09139 0,40 C0,17.90861 17.90861,0 40,0 L90,0 C112.09139,0 130,17.90861 130,40 Z" fill-opacity="0.5"></path>
            <rect x="20" y="20" width="90" height="40" rx="20"></rect>
        </g>
        <path d="M65,120 L135,120 C138.313708,120 141,122.686292 141,126 L141,130 C141,133.313708 138.313708,136 135,136 L65,136 C61.6862915,136 59,133.313708 59,130 L59,126 C59,122.686292 61.6862915,120 65,120 Z" fill="#FFFFFF"></path>
        <circle fill="#FFFFFF" cx="70" cy="128" r="10"></circle>
        <circle fill="#FFFFFF" cx="130" cy="128" r="10"></circle>
        <circle fill="#0F766E" cx="70" cy="128" r="4"></circle>
        <circle fill="#0F766E" cx="130" cy="128" r="4"></circle>
    </g>
</svg>
